1.9Hzhigh3min_grf.mot
version=1
nRows=27
nColumns 19
inDegrees=yes
endheader
time	1_ground_force_vx	1_ground_force_vy	1_ground_force_vz	1_ground_force_px	1_ground_force_py	1_ground_force_pz	1_ground_torque_x	1_ground_torque_y	1_ground_torque_z	2_ground_force_vx	2_ground_force_vy	2_ground_force_vz	2_ground_force_px	2_ground_force_py	2_ground_force_pz	2_ground_torque_x	2_ground_torque_y	2_ground_torque_z
            0.005000	          -23.752856	         1089.540595	          -83.865471	           -0.286197	            0.006401	           -0.449002	           -0.031420	            1.441210	           -0.110935	            0.310987	         1510.562896	          116.092142	           -0.294163	            0.005590	           -0.744942	            0.000207	            1.006901	            0.077384
            0.005500	          -23.107982	         1082.687539	          -83.162742	           -0.286128	            0.006401	           -0.448986	           -0.029512	            1.382728	           -0.106209	           -0.125418	         1501.541733	          114.980791	           -0.294075	            0.005591	           -0.744910	           -0.000071	            0.850623	            0.065137
            0.006000	          -22.143557	         1076.377230	          -82.962910	           -0.286008	            0.006400	           -0.448825	           -0.029807	            1.448898	           -0.111675	           -1.172619	         1493.068845	          114.434823	           -0.293812	            0.005591	           -0.744873	           -0.000753	            0.959333	            0.073527
            0.006500	          -20.949361	         1068.264342	          -82.679655	           -0.285967	            0.006400	           -0.448931	           -0.029602	            1.509510	           -0.116830	           -1.472422	         1485.152821	          113.421211	           -0.293718	            0.005591	           -0.744804	           -0.001134	            1.144077	            0.087373
            0.007000	          -20.488639	         1060.691639	          -82.346410	           -0.285910	            0.006400	           -0.448939	           -0.030406	            1.574112	           -0.122206	           -1.253114	         1476.135532	          111.887236	           -0.293507	            0.005592	           -0.744821	           -0.001223	            1.440642	            0.109197
            0.007500	          -20.484054	         1053.655484	          -81.046739	           -0.285863	            0.006399	           -0.448716	           -0.027101	            1.394021	           -0.107228	            0.045757	         1466.569483	          110.397767	           -0.293429	            0.005592	           -0.744675	            0.000044	            1.405909	            0.105831
            0.008000	          -20.387406	         1045.177270	          -79.707610	           -0.285834	            0.006400	           -0.448898	           -0.023127	            1.185641	           -0.090420	            1.200589	         1457.925153	          108.536204	           -0.293237	            0.005592	           -0.744585	            0.000958	            1.163063	            0.086585
            0.008500	          -20.474980	         1038.862628	          -78.542191	           -0.285719	            0.006399	           -0.448687	           -0.019134	            0.970824	           -0.073398	            2.125489	         1448.172332	          107.421662	           -0.293049	            0.005593	           -0.744543	            0.001313	            0.894462	            0.066349
            0.009000	          -19.921514	         1031.107999	          -77.797247	           -0.285587	            0.006400	           -0.448726	           -0.016590	            0.858696	           -0.064789	            1.921463	         1439.703493	          106.593752	           -0.292924	            0.005593	           -0.744542	            0.000912	            0.683419	            0.050599
            0.009500	          -18.956631	         1022.274275	          -77.608220	           -0.285639	            0.006400	           -0.448831	           -0.017834	            0.961720	           -0.073011	            1.250307	         1430.864469	          105.858599	           -0.292690	            0.005594	           -0.744543	            0.000768	            0.878518	            0.064995
            0.010000	          -18.267117	         1015.783664	          -77.362625	           -0.285442	            0.006399	           -0.448561	           -0.017570	            0.977007	           -0.074409	            0.908889	         1421.475819	          104.652038	           -0.292572	            0.005594	           -0.744390	            0.000744	            1.163649	            0.085670
            0.010500	          -17.575893	         1006.767110	          -76.623434	           -0.285427	            0.006400	           -0.448901	           -0.017744	            1.016388	           -0.077356	            1.130418	         1411.904206	          103.632308	           -0.292393	            0.005595	           -0.744422	            0.001139	            1.422660	            0.104422
            0.011000	          -16.975770	          999.551683	          -75.509422	           -0.285401	            0.006400	           -0.448711	           -0.016978	            0.999682	           -0.075519	            2.150806	         1401.600915	          102.046459	           -0.292385	            0.005595	           -0.744342	            0.001989	            1.295917	            0.094352
            0.011500	          -17.154345	          991.974652	          -74.165761	           -0.285295	            0.006399	           -0.448689	           -0.013062	            0.755303	           -0.056471	            3.167185	         1392.402757	          100.417633	           -0.292175	            0.005595	           -0.744305	            0.002431	            1.068546	            0.077062
            0.012000	          -17.241152	          984.577616	          -72.775688	           -0.285175	            0.006399	           -0.448514	           -0.008279	            0.472777	           -0.034946	            4.326937	         1382.467205	           99.161543	           -0.292113	            0.005595	           -0.744234	            0.002388	            0.762832	            0.054716
            0.012500	          -16.732944	          976.101129	          -71.850298	           -0.285106	            0.006399	           -0.448574	           -0.007075	            0.412693	           -0.030378	            4.924429	         1372.530124	           97.764915	           -0.291897	            0.005596	           -0.744188	            0.002478	            0.690726	            0.049200
            0.013000	          -15.904481	          967.445587	          -71.201606	           -0.285157	            0.006399	           -0.448627	           -0.007814	            0.475328	           -0.034983	            4.723747	         1363.140232	           96.980655	           -0.291747	            0.005596	           -0.744178	            0.002800	            0.807986	            0.057484
            0.013500	          -15.260644	          958.792172	          -71.056878	           -0.284984	            0.006400	           -0.448782	           -0.007973	            0.500947	           -0.037126	            4.527757	         1352.461203	           96.285652	           -0.291634	            0.005596	           -0.744025	            0.003853	            1.150924	            0.081938
            0.014000	          -14.524864	          951.219522	          -70.724315	           -0.284939	            0.006399	           -0.448632	           -0.008808	            0.576851	           -0.042890	            4.470097	         1342.337005	           95.076343	           -0.291530	            0.005597	           -0.744048	            0.004471	            1.342550	            0.095091
            0.014500	          -14.061879	          943.102438	          -69.522123	           -0.284846	            0.006399	           -0.448629	           -0.008047	            0.539697	           -0.039784	            5.021342	         1332.215934	           93.538286	           -0.291369	            0.005597	           -0.743973	            0.004881	            1.294952	            0.090922
            0.015000	          -13.965947	          934.805455	          -68.457365	           -0.284749	            0.006399	           -0.448568	           -0.005320	            0.356109	           -0.026078	            6.320212	         1322.650130	           92.048818	           -0.291254	            0.005597	           -0.743921	            0.004792	            1.002877	            0.069794
            0.015500	          -14.098221	          925.966089	          -67.027510	           -0.284818	            0.006399	           -0.448641	           -0.001818	            0.119430	           -0.008645	            7.805879	         1313.268335	           90.700703	           -0.291088	            0.005598	           -0.743939	            0.004385	            0.737758	            0.050953
            0.016000	          -13.819276	          918.390719	          -66.051834	           -0.284609	            0.006399	           -0.448533	            0.001160	           -0.077071	            0.005543	            8.550005	         1301.673476	           89.532735	           -0.290973	            0.005598	           -0.743875	            0.004615	            0.702620	            0.048328
            0.016500	          -13.448676	          909.734106	          -65.172728	           -0.284516	            0.006399	           -0.448558	            0.000336	           -0.022732	            0.001629	            8.772053	         1291.919200	           88.183845	           -0.290933	            0.005598	           -0.743893	            0.006424	            0.946128	            0.064581
            0.017000	          -12.299362	          900.718230	          -64.572230	           -0.284561	            0.006399	           -0.448529	           -0.001942	            0.142234	           -0.010197	            8.999001	         1280.873624	           87.393492	           -0.290787	            0.005598	           -0.743792	            0.008175	            1.163567	            0.079390
            0.017500	          -11.517966	          893.146104	          -64.331501	           -0.284422	            0.006398	           -0.448267	           -0.003038	            0.235601	           -0.016970	            8.897294	         1270.011279	           86.510079	           -0.290556	            0.005599	           -0.743776	            0.009512	            1.357802	            0.092490
            0.018000	          -11.055548	          883.768445	          -63.455715	           -0.284325	            0.006399	           -0.448489	           -0.002667	            0.213173	           -0.015306	            9.449451	         1259.704120	           85.534502	           -0.290472	            0.005599	           -0.743771	            0.009235	            1.231113	            0.083593
